  0
SECTION
  2
BLOCKS
  0
ENDSEC
  0
SECTION
  2
ENTITIES
  0
LINE
  8
0
 10
39.3
 20
0
 11
38.3
 21
0
  0
LINE
  8
0
 10
38.3
 20
0
 11
38.3
 21
26.99
  0
LINE
  8
0
 10
38.3
 20
26.99
 11
37.3
 21
26.99
  0
LINE
  8
0
 10
37.3
 20
26.99
 11
37.3
 21
0
  0
LINE
  8
0
 10
37.3
 20
0
 11
36.3
 21
0
  0
LINE
  8
0
 10
36.3
 20
0
 11
36.3
 21
26.99
  0
LINE
  8
0
 10
36.3
 20
26.99
 11
35.3
 21
26.99
  0
LINE
  8
0
 10
35.3
 20
26.99
 11
35.3
 21
0
  0
LINE
  8
0
 10
35.3
 20
0
 11
34.3
 21
0
  0
LINE
  8
0
 10
34.3
 20
0
 11
34.3
 21
26.99
  0
LINE
  8
0
 10
34.3
 20
26.99
 11
33.3
 21
26.99
  0
LINE
  8
0
 10
33.3
 20
26.99
 11
33.3
 21
0
  0
LINE
  8
0
 10
33.3
 20
0
 11
32.3
 21
0
  0
LINE
  8
0
 10
32.3
 20
0
 11
32.3
 21
26.99
  0
LINE
  8
0
 10
32.3
 20
26.99
 11
31.3
 21
26.99
  0
LINE
  8
0
 10
31.3
 20
26.99
 11
31.3
 21
0
  0
LINE
  8
0
 10
31.3
 20
0
 11
30.3
 21
0
  0
LINE
  8
0
 10
30.3
 20
0
 11
30.3
 21
26.99
  0
LINE
  8
0
 10
30.3
 20
26.99
 11
29.3
 21
26.99
  0
LINE
  8
0
 10
29.3
 20
26.99
 11
29.3
 21
0
  0
LINE
  8
0
 10
29.3
 20
0
 11
28.3
 21
0
  0
LINE
  8
0
 10
28.3
 20
0
 11
28.3
 21
26.99
  0
LINE
  8
0
 10
28.3
 20
26.99
 11
27.3
 21
26.99
  0
LINE
  8
0
 10
27.3
 20
26.99
 11
27.3
 21
0
  0
LINE
  8
0
 10
27.3
 20
0
 11
26.3
 21
0
  0
LINE
  8
0
 10
26.3
 20
0
 11
26.3
 21
26.99
  0
LINE
  8
0
 10
26.3
 20
26.99
 11
25.3
 21
26.99
  0
LINE
  8
0
 10
25.3
 20
26.99
 11
25.3
 21
0
  0
LINE
  8
0
 10
25.3
 20
0
 11
24.3
 21
0
  0
LINE
  8
0
 10
24.3
 20
0
 11
24.3
 21
26.99
  0
LINE
  8
0
 10
24.3
 20
26.99
 11
23.3
 21
26.99
  0
LINE
  8
0
 10
23.3
 20
26.99
 11
23.3
 21
0
  0
LINE
  8
0
 10
23.3
 20
0
 11
22.3
 21
0
  0
LINE
  8
0
 10
22.3
 20
0
 11
22.3
 21
26.99
  0
LINE
  8
0
 10
22.3
 20
26.99
 11
21.3
 21
26.99
  0
LINE
  8
0
 10
21.3
 20
26.99
 11
21.3
 21
0
  0
LINE
  8
0
 10
21.3
 20
0
 11
20.3
 21
0
  0
LINE
  8
0
 10
20.3
 20
0
 11
20.3
 21
26.99
  0
LINE
  8
0
 10
20.3
 20
26.99
 11
19.3
 21
26.99
  0
LINE
  8
0
 10
19.3
 20
26.99
 11
19.3
 21
0
  0
LINE
  8
0
 10
19.3
 20
0
 11
18.3
 21
0
  0
LINE
  8
0
 10
18.3
 20
0
 11
18.3
 21
26.99
  0
LINE
  8
0
 10
18.3
 20
26.99
 11
17.3
 21
26.99
  0
LINE
  8
0
 10
17.3
 20
26.99
 11
17.3
 21
0
  0
LINE
  8
0
 10
17.3
 20
0
 11
16.3
 21
0
  0
LINE
  8
0
 10
16.3
 20
0
 11
16.3
 21
26.99
  0
LINE
  8
0
 10
16.3
 20
26.99
 11
15.3
 21
26.99
  0
LINE
  8
0
 10
15.3
 20
26.99
 11
15.3
 21
0
  0
LINE
  8
0
 10
15.3
 20
0
 11
14.3
 21
0
  0
LINE
  8
0
 10
14.3
 20
0
 11
14.3
 21
26.99
  0
LINE
  8
0
 10
14.3
 20
26.99
 11
13.3
 21
26.99
  0
LINE
  8
0
 10
13.3
 20
26.99
 11
13.3
 21
0
  0
LINE
  8
0
 10
13.3
 20
0
 11
12.3
 21
0
  0
LINE
  8
0
 10
12.3
 20
0
 11
12.3
 21
26.99
  0
LINE
  8
0
 10
12.3
 20
26.99
 11
11.3
 21
26.99
  0
LINE
  8
0
 10
11.3
 20
26.99
 11
11.3
 21
0
  0
LINE
  8
0
 10
11.3
 20
0
 11
10.3
 21
0
  0
LINE
  8
0
 10
10.3
 20
0
 11
10.3
 21
26.99
  0
LINE
  8
0
 10
10.3
 20
26.99
 11
9.29999
 21
26.99
  0
LINE
  8
0
 10
9.29999
 20
26.99
 11
9.29999
 21
0
  0
LINE
  8
0
 10
9.29999
 20
0
 11
8.29999
 21
0
  0
LINE
  8
0
 10
8.29999
 20
0
 11
8.29999
 21
26.99
  0
LINE
  8
0
 10
8.29999
 20
26.99
 11
7.29999
 21
26.99
  0
LINE
  8
0
 10
7.29999
 20
26.99
 11
7.29999
 21
0
  0
LINE
  8
0
 10
7.29999
 20
0
 11
6.29999
 21
0
  0
LINE
  8
0
 10
6.29999
 20
0
 11
6.29999
 21
26.99
  0
LINE
  8
0
 10
6.29999
 20
26.99
 11
5.29999
 21
26.99
  0
LINE
  8
0
 10
5.29999
 20
26.99
 11
5.29999
 21
0
  0
LINE
  8
0
 10
5.29999
 20
0
 11
4.29999
 21
0
  0
LINE
  8
0
 10
4.29999
 20
0
 11
4.29999
 21
26.99
  0
LINE
  8
0
 10
4.29999
 20
26.99
 11
3.29999
 21
26.99
  0
LINE
  8
0
 10
3.29999
 20
26.99
 11
3.29999
 21
0
  0
LINE
  8
0
 10
3.29999
 20
0
 11
2.29999
 21
0
  0
LINE
  8
0
 10
2.29999
 20
0
 11
2.29999
 21
26.99
  0
LINE
  8
0
 10
2.29999
 20
26.99
 11
1.29999
 21
26.99
  0
LINE
  8
0
 10
1.29999
 20
26.99
 11
1.29999
 21
0
  0
LINE
  8
0
 10
1.29999
 20
0
 11
0.299988
 21
0
  0
LINE
  8
0
 10
0.299988
 20
0
 11
0.299988
 21
26.99
  0
LINE
  8
0
 10
0.299988
 20
26.99
 11
-0.699997
 21
26.99
  0
LINE
  8
0
 10
-0.699997
 20
26.99
 11
-0.699997
 21
0
  0
LINE
  8
0
 10
-0.699997
 20
0
 11
-1.7
 21
0
  0
LINE
  8
0
 10
-1.7
 20
0
 11
-1.7
 21
26.99
  0
LINE
  8
0
 10
-1.7
 20
26.99
 11
-2.7
 21
26.99
  0
LINE
  8
0
 10
-2.7
 20
26.99
 11
-2.7
 21
0
  0
LINE
  8
0
 10
-2.7
 20
0
 11
-3.7
 21
0
  0
LINE
  8
0
 10
-3.7
 20
0
 11
-3.7
 21
26.99
  0
LINE
  8
0
 10
-3.7
 20
26.99
 11
-4.7
 21
26.99
  0
LINE
  8
0
 10
-4.7
 20
26.99
 11
-4.7
 21
0
  0
LINE
  8
0
 10
-4.7
 20
0
 11
-5.7
 21
0
  0
LINE
  8
0
 10
-5.7
 20
0
 11
-5.7
 21
26.99
  0
LINE
  8
0
 10
-5.7
 20
26.99
 11
-6.7
 21
26.99
  0
LINE
  8
0
 10
-6.7
 20
26.99
 11
-6.7
 21
0
  0
LINE
  8
0
 10
-6.7
 20
0
 11
-7.7
 21
0
  0
LINE
  8
0
 10
-7.7
 20
0
 11
-7.7
 21
26.99
  0
LINE
  8
0
 10
-7.7
 20
26.99
 11
-8.7
 21
26.99
  0
LINE
  8
0
 10
-8.7
 20
26.99
 11
-8.7
 21
0
  0
LINE
  8
0
 10
-8.7
 20
0
 11
-9.7
 21
0
  0
LINE
  8
0
 10
-9.7
 20
0
 11
-9.7
 21
26.99
  0
LINE
  8
0
 10
-9.7
 20
26.99
 11
-10.7
 21
26.99
  0
LINE
  8
0
 10
-10.7
 20
26.99
 11
-10.7
 21
0
  0
LINE
  8
0
 10
-10.7
 20
0
 11
-11.7
 21
0
  0
LINE
  8
0
 10
-11.7
 20
0
 11
-11.7
 21
26.99
  0
LINE
  8
0
 10
-11.7
 20
26.99
 11
-12.7
 21
26.99
  0
LINE
  8
0
 10
-12.7
 20
26.99
 11
-12.7
 21
0
  0
LINE
  8
0
 10
-12.7
 20
0
 11
-13.7
 21
0
  0
LINE
  8
0
 10
-13.7
 20
0
 11
-13.7
 21
26.99
  0
LINE
  8
0
 10
-13.7
 20
26.99
 11
-14.7
 21
26.99
  0
LINE
  8
0
 10
-14.7
 20
26.99
 11
-14.7
 21
0
  0
LINE
  8
0
 10
-14.7
 20
0
 11
-15.7
 21
0
  0
LINE
  8
0
 10
-15.7
 20
0
 11
-15.7
 21
26.99
  0
LINE
  8
0
 10
-15.7
 20
26.99
 11
-16.7
 21
26.99
  0
LINE
  8
0
 10
-16.7
 20
26.99
 11
-16.7
 21
0
  0
LINE
  8
0
 10
-16.7
 20
0
 11
-17.7
 21
0
  0
LINE
  8
0
 10
-17.7
 20
0
 11
-17.7
 21
26.99
  0
LINE
  8
0
 10
-17.7
 20
26.99
 11
-18.7
 21
26.99
  0
LINE
  8
0
 10
-18.7
 20
26.99
 11
-18.7
 21
0
  0
LINE
  8
0
 10
-18.7
 20
0
 11
-19.7
 21
0
  0
LINE
  8
0
 10
-19.7
 20
0
 11
-19.7
 21
26.99
  0
LINE
  8
0
 10
-19.7
 20
26.99
 11
-20.7
 21
26.99
  0
LINE
  8
0
 10
-20.7
 20
26.99
 11
-20.7
 21
0
  0
LINE
  8
0
 10
-20.7
 20
0
 11
-21.7
 21
0
  0
LINE
  8
0
 10
-21.7
 20
0
 11
-21.7
 21
26.99
  0
LINE
  8
0
 10
-21.7
 20
26.99
 11
-22.7
 21
26.99
  0
LINE
  8
0
 10
-22.7
 20
26.99
 11
-22.7
 21
0
  0
LINE
  8
0
 10
-22.7
 20
0
 11
-23.7
 21
0
  0
LINE
  8
0
 10
-23.7
 20
0
 11
-23.7
 21
26.99
  0
LINE
  8
0
 10
-23.7
 20
26.99
 11
-24.7
 21
26.99
  0
LINE
  8
0
 10
-24.7
 20
26.99
 11
-24.7
 21
0
  0
LINE
  8
0
 10
-24.7
 20
0
 11
-25.7
 21
0
  0
LINE
  8
0
 10
-25.7
 20
0
 11
-25.7
 21
26.99
  0
LINE
  8
0
 10
-25.7
 20
26.99
 11
-26.7
 21
26.99
  0
LINE
  8
0
 10
-26.7
 20
26.99
 11
-26.7
 21
0
  0
LINE
  8
0
 10
-26.7
 20
0
 11
-27.7
 21
0
  0
LINE
  8
0
 10
-27.7
 20
0
 11
-27.7
 21
26.99
  0
LINE
  8
0
 10
-27.7
 20
26.99
 11
-28.7
 21
26.99
  0
LINE
  8
0
 10
-28.7
 20
26.99
 11
-28.7
 21
0
  0
LINE
  8
0
 10
-28.7
 20
0
 11
-29.7
 21
0
  0
LINE
  8
0
 10
-29.7
 20
0
 11
-29.7
 21
26.99
  0
LINE
  8
0
 10
-29.7
 20
26.99
 11
-30.7
 21
26.99
  0
LINE
  8
0
 10
-30.7
 20
26.99
 11
-30.7
 21
0
  0
LINE
  8
0
 10
-30.7
 20
0
 11
-31.7
 21
0
  0
LINE
  8
0
 10
-31.7
 20
0
 11
-31.7
 21
26.99
  0
LINE
  8
0
 10
-31.7
 20
26.99
 11
-32.7
 21
26.99
  0
LINE
  8
0
 10
-32.7
 20
26.99
 11
-32.7
 21
0
  0
LINE
  8
0
 10
-32.7
 20
0
 11
-33.7
 21
0
  0
LINE
  8
0
 10
-33.7
 20
0
 11
-33.7
 21
26.99
  0
LINE
  8
0
 10
-33.7
 20
26.99
 11
-34.7
 21
26.99
  0
LINE
  8
0
 10
-34.7
 20
26.99
 11
-34.7
 21
0
  0
LINE
  8
0
 10
-34.7
 20
0
 11
-35.7
 21
0
  0
LINE
  8
0
 10
-35.7
 20
0
 11
-35.7
 21
26.99
  0
LINE
  8
0
 10
-35.7
 20
26.99
 11
-36.7
 21
26.99
  0
LINE
  8
0
 10
-36.7
 20
26.99
 11
-36.7
 21
0
  0
LINE
  8
0
 10
-36.7
 20
0
 11
-37.7
 21
0
  0
LINE
  8
0
 10
-37.7
 20
0
 11
-37.7
 21
26.99
  0
LINE
  8
0
 10
-37.7
 20
26.99
 11
-38.7
 21
26.99
  0
LINE
  8
0
 10
-38.7
 20
26.99
 11
-38.7
 21
0
  0
LINE
  8
0
 10
-38.7
 20
0
 11
-39.7
 21
0
  0
LINE
  8
0
 10
-39.7
 20
0
 11
-39.7
 21
26.964
  0
LINE
  8
0
 10
-39.7
 20
26.964
 11
-40.7
 21
26.6391
  0
LINE
  8
0
 10
-40.7
 20
26.6391
 11
-40.7
 21
0
  0
LINE
  8
0
 10
-40.7
 20
0
 11
-41.7
 21
0
  0
LINE
  8
0
 10
-41.7
 20
0
 11
-41.7
 21
25.9689
  0
LINE
  8
0
 10
-41.7
 20
25.9689
 11
-42.7
 21
24.0062
  0
LINE
  8
0
 10
-42.7
 20
24.0062
 11
-42.7
 21
0
  0
LINE
  8
0
 10
-42.7
 20
0
 11
-42.8
 21
0
  0
LINE
  8
0
 10
-42.8
 20
0
 11
-42.8
 21
-23.81
  0
LINE
  8
0
 10
-42.8
 20
-23.81
 11
-42.1927
 21
-25.6792
  0
LINE
  8
0
 10
-42.1927
 20
-25.6792
 11
-39.62
 21
-26.99
  0
LINE
  8
0
 10
-39.62
 20
-26.99
 11
39.62
 21
-26.99
  0
LINE
  8
0
 10
39.62
 20
-26.99
 11
41.4892
 21
-26.3827
  0
LINE
  8
0
 10
41.4892
 20
-26.3827
 11
42.8
 21
-23.81
  0
LINE
  8
0
 10
42.8
 20
-23.81
 11
42.8
 21
0
  0
LINE
  8
0
 10
42.8
 20
0
 11
42.3
 21
0
  0
LINE
  8
0
 10
42.3
 20
0
 11
42.3
 21
25.3489
  0
LINE
  8
0
 10
42.3
 20
25.3489
 11
42.1927
 21
25.6792
  0
LINE
  8
0
 10
42.1927
 20
25.6792
 11
41.3
 21
26.134
  0
LINE
  8
0
 10
41.3
 20
26.134
 11
41.3
 21
0
  0
LINE
  8
0
 10
41.3
 20
0
 11
40.3
 21
0
  0
LINE
  8
0
 10
40.3
 20
0
 11
40.3
 21
26.6435
  0
LINE
  8
0
 10
40.3
 20
26.6435
 11
39.62
 21
26.99
  0
LINE
  8
0
 10
39.62
 20
26.99
 11
39.3
 21
26.99
  0
LINE
  8
0
 10
39.3
 20
26.99
 11
39.3
 21
0
  0
ENDSEC
  0
SECTION
  2
OBJECTS
  0
DICTIONARY
  0
ENDSEC
  0
EOF
